<svg viewBox="55 25 90 142" xmlns="http://www.w3.org/2000/svg">
    <g transform="translate(100, 100)">
        <path d="M 0,-70 C -40,-70 -45,-40 -45,-20 C -45,20 -30,50 0,70 
                 C 30,50 45,20 45,-20 C 45,-40 40,-70 0,-70 Z" 
              fill="none" stroke="black" stroke-width="3"/>
        <g transform="scale(0.8)">
            <path d="M -40,-20 L -20,-40 L -25,-15 Z" fill="black" transform="rotate(0)"/>
            <path d="M -40,-20 L -20,-40 L -25,-15 Z" fill="black" transform="rotate(120)"/>
            <path d="M -40,-20 L -20,-40 L -25,-15 Z" fill="black" transform="rotate(240)"/>
            <path d="M 40,20 L 20,40 L 25,15 Z" fill="black" transform="rotate(0)"/>
            <path d="M 40,20 L 20,40 L 25,15 Z" fill="black" transform="rotate(120)"/>
            <path d="M 40,20 L 20,40 L 25,15 Z" fill="black" transform="rotate(240)"/>
        </g>
    </g>
</svg>
